<?xml version="1.0" standalone="no"?>
<!DOCTYPE svg PUBLIC "-//W3C//DTD SVG 20010904//EN"
 "http://www.w3.org/TR/2001/REC-SVG-20010904/DTD/svg10.dtd">
<svg version="1.0" xmlns="http://www.w3.org/2000/svg"
 width="199.000000pt" height="199.000000pt" viewBox="0 0 199.000000 199.000000"
 preserveAspectRatio="xMidYMid meet">
<metadata>
Created by potrace 1.11, written by Peter Selinger 2001-2013
</metadata>
<g transform="translate(0.000000,199.000000) scale(0.100000,-0.100000)"
fill="#000000" stroke="none">
<path d="M899 1956 c-2 -2 -29 -7 -59 -10 -59 -7 -89 -15 -190 -53 -179 -67
-343 -199 -450 -362 -379 -578 -48 -1352 630 -1475 142 -26 359 -10 475 35
286 112 467 289 585 574 12 27 30 89 35 117 3 13 8 34 11 48 13 53 13 266 -1
337 -59 307 -253 565 -520 693 -103 49 -156 67 -262 85 -77 14 -243 21 -254
11z"/>
</g>
</svg>
